<svg width="43" height="44" viewBox="0 0 43 44" fill="none" xmlns="http://www.w3.org/2000/svg">
<path fill-rule="evenodd" clip-rule="evenodd" d="M37.7539 6.21926L37.7539 15.9532C37.7539 16.9642 36.9343 17.7839 35.9232 17.7839C34.9121 17.7839 34.0925 16.9642 34.0925 15.9532L34.0925 12.4696L26.3078 20.2543L29.7914 20.2543C30.8024 20.2543 31.6221 21.0739 31.6221 22.085C31.6221 23.0961 30.8024 23.9157 29.7914 23.9157L20.0575 23.9157L20.0575 14.1818C20.0575 13.1707 20.8771 12.3511 21.8881 12.3511C22.8992 12.3511 23.7188 13.1707 23.7188 14.1818L23.7188 17.6653L31.5035 9.88064H28.02C27.0089 9.88064 26.1893 9.06101 26.1893 8.04995C26.1893 7.03889 27.0089 6.21926 28.02 6.21926L37.7539 6.21926Z" fill="#1DB854"/>
<path fill-rule="evenodd" clip-rule="evenodd" d="M24.2994 5.14307H9C4.02944 5.14307 0 9.1725 0 14.1431V34.8767C0 39.8472 4.02943 43.8767 8.99999 43.8767H29.7336C34.7042 43.8767 38.7336 39.8472 38.7336 34.8767V19.7471C37.9484 20.3297 36.976 20.6744 35.9232 20.6744C35.3077 20.6744 34.7198 20.5566 34.1806 20.3424C34.3949 20.8815 34.5126 21.4695 34.5126 22.0849C34.5126 23.0451 34.226 23.9384 33.7336 24.6838V34.8767C33.7336 37.0858 31.9428 38.8767 29.7336 38.8767H8.99999C6.79086 38.8767 5 37.0858 5 34.8767V14.1431C5 11.9339 6.79086 10.1431 9 10.1431H19.4414C20.1549 9.70986 20.9924 9.46042 21.8881 9.46042C22.5036 9.46042 23.0915 9.57818 23.6307 9.7924C23.4165 9.25326 23.2987 8.66531 23.2987 8.04986C23.2987 6.9535 23.6724 5.94443 24.2994 5.14307ZM33.5666 12.9955C33.1967 11.7582 32.244 10.7725 31.0272 10.3569L31.5035 9.88055H28.02C27.8367 9.88055 27.6597 9.85361 27.4927 9.80348C26.7387 9.57708 26.1893 8.87763 26.1893 8.04986C26.1893 7.03879 27.0089 6.21916 28.02 6.21916H34.0048C35.6105 7.08651 36.9227 8.42768 37.7539 10.0553V15.9531C37.7539 16.9642 36.9343 17.7838 35.9232 17.7838C35.0954 17.7838 34.396 17.2344 34.1696 16.4804C34.1194 16.3134 34.0925 16.1364 34.0925 15.9531V12.4695L33.5666 12.9955Z" fill="#1DB854"/>
</svg>
